# xmcd
#
# Track frame offsets:
#	150
#	15024
#	31077
#	49562
#	65324
#	79904
#	95591
#	113648
#	127157
#	144456
#	159963
#	176429
#	195067
#	209392
#	225805
#	243469
#
# Disc length: 3497 seconds
#
# Revision: 0
# Processed by: cddbd v1.5.2PL0 Copyright (c) Steve Scherf et al.
# Submitted via: EasyCDDAExtractor 16.0.6.1
#
DISCID=b70da710
DTITLE=Earl Thomas Conley - 16 Biggest Hits
DYEAR=2006
DGENRE=Country
TTITLE0=Fire And Smoke
TTITLE1=Love Don't Care (Whose Heart It Breaks)
TTITLE2=What She Is (Is A Woman In Love)
TTITLE3=Your Love's On The Line
TTITLE4=Holding Her And Loving You
TTITLE5=Don't Make It Easy For Me
TTITLE6=Angel In Disguise
TTITLE7=Chance Of Lovin' You
TTITLE8=Love Out Loud
TTITLE9=Nobody Falls Like A Fool
TTITLE10=Once In A Blue Moon
TTITLE11=I Can't Win For Losin' You
TTITLE12=Right From The Start
TTITLE13=We Believe In Happy Endings
TTITLE14=What I'd Say
TTITLE15=Somewhere Between Right And Wrong
EXTD=
EXTT0=
EXTT1=
EXTT2=
EXTT3=
EXTT4=
EXTT5=
EXTT6=
EXTT7=
EXTT8=
EXTT9=
EXTT10=
EXTT11=
EXTT12=
EXTT13=
EXTT14=
EXTT15=
PLAYORDER=
